<?xml version="1.0"?>
<!--Icons from directory ""-->
<svg xmlns="http://www.w3.org/2000/svg" viewBox="0 0 32 320">
	<symbol viewBox="0 0 16 16" width="16" height="16" id="icon-add"><path stroke="FFF" stroke-opacity="0" d="M8 0C3.589 0 0 3.589 0 8s3.589 8 8 8 8-3.589 8-8-3.589-8-8-8zm0 14c-3.309 0-6-2.691-6-6s2.691-6 6-6 6 2.691 6 6-2.691 6-6 6zm3-7H9V5a1 1 0 0 0-2 0v2H5a1 1 0 0 0 0 2h2v2a1 1 0 0 0 2 0V9h2a1 1 0 0 0 0-2z"/></symbol>
	<symbol viewBox="0 0 16 16" width="16" height="16" id="icon-creategroup"><g fill="none" fill-rule="evenodd"><circle stroke="#444" stroke-width="2" fill="#FFF" cx="8" cy="3" r="2"/><circle stroke="#444" stroke-width="2" fill="#FFF" cx="13" cy="13" r="2"/><rect fill="#444" x="7" y="12" width="4" height="2" rx="1"/><circle stroke="#444" stroke-width="2" fill="#FFF" cx="3" cy="13" r="2"/><rect fill="#444" transform="scale(-1 1) rotate(60 0 .804)" x="2.616" y="8.665" width="5" height="2" rx="1"/><rect fill="#444" transform="rotate(60 10.116 6.665)" x="7.616" y="5.665" width="5" height="2" rx="1"/></g></symbol>
	<symbol viewBox="0 0 12 12" width="12" height="12" id="icon-cross"><path stroke="FFF" stroke-opacity="0" d="M6 4.667L1.333 0 0 1.333 4.667 6 0 10.667 1.333 12 6 7.333 10.666 12 12 10.667 7.333 6 12 1.333 10.666 0z"/></symbol>
	<symbol viewBox="0 0 10 10" width="10" height="10" id="icon-draganddrop"><path stroke="FFF" stroke-opacity="0" d="M0 0h2v2H0V0zm0 4h2v2H0V4zm0 4h2v2H0V8zm8 0h2v2H8V8zM4 4h2v2H4V4zm0 4h2v2H4V8z"/></symbol>
	<symbol viewBox="0 0 16 16" width="16" height="16" id="icon-edit"><path stroke="FFF" stroke-opacity="0" d="M13.999 6l-.002 8H2V2h8V0H2C.897 0 0 .897 0 2v12c0 1.104.897 2 2 2h12a2 2 0 0 0 2-2V6h-2.001zM3.112 13l3-1 7-7-2-2-7 7-1 3zM15.113 2.904c1-1 1.184-1.643.402-2.424-.783-.78-1.402-.576-2.393.375L12.108 2l2 2 1.005-1.096z"/></symbol>
	<symbol viewBox="0 0 16 4" width="16" height="4" id="icon-more"><path stroke="FFF" stroke-opacity="0" d="M2 4a2 2 0 1 1 0-4 2 2 0 0 1 0 4zm6 0a2 2 0 1 1 0-4 2 2 0 0 1 0 4zm6 0a2 2 0 1 1 0-4 2 2 0 0 1 0 4z"/></symbol>
	<symbol viewBox="0 0 16 16" width="16" height="16" id="icon-search"><path stroke="FFF" stroke-opacity="0" d="M3.999 7.002a.5.5 0 0 1-.5-.5c0-1.654 1.346-3 3-3a.5.5 0 0 1 0 1c-1.103 0-2 .897-2 2 0 .277-.223.5-.5.5zm11.708 7.293l-3.965-3.965A6.456 6.456 0 0 0 13 6.5C13 2.916 10.084 0 6.5 0A6.508 6.508 0 0 0 0 6.5C0 10.083 2.916 13 6.5 13a6.47 6.47 0 0 0 3.828-1.258l3.965 3.965a1.001 1.001 0 0 0 1.414 0 .998.998 0 0 0 0-1.412zm-9.208-3.293a4.507 4.507 0 0 1-4.5-4.5c0-2.479 2.019-4.5 4.5-4.5s4.5 2.019 4.5 4.5-2.018 4.5-4.5 4.5z"/></symbol>
	<symbol viewBox="0 0 16 16" width="16" height="16" id="icon-share"><path stroke="FFF" stroke-opacity="0" d="M13 9.999c-.809 0-1.539.323-2.078.843L5.963 8.363c.016-.12.037-.239.037-.364s-.021-.243-.037-.363l4.959-2.479c.539.52 1.27.843 2.078.843a3 3 0 1 0-3-3c0 .125.021.243.037.363L5.078 5.842A2.986 2.986 0 0 0 3 4.999a3 3 0 1 0 0 6c.809 0 1.539-.323 2.078-.843l4.959 2.479c-.016.121-.037.24-.037.364a3 3 0 1 0 3-3zm0-8a1.001 1.001 0 0 1 0 2 1.001 1.001 0 0 1 0-2zm-10 7a1.001 1.001 0 0 1 0-2 1.001 1.001 0 0 1 0 2zm10 5a1.001 1.001 0 0 1 0-2 1.001 1.001 0 0 1 0 2z"/></symbol>
	<symbol viewBox="0 0 10 7" width="10" height="7" id="icon-sort"><path stroke="FFF" stroke-opacity="0" d="M4.706 6.462L0 1.725 1.715 0l2.99 3.01L7.698 0l1.715 1.725z"/></symbol>
	<symbol viewBox="0 0 15 16" width="15" height="16" id="icon-trash"><path stroke="FFF" stroke-opacity="0" d="M14 3h-3V2a2 2 0 0 0-2-2H6C4.897 0 4 .896 4 2v1H1a1 1 0 0 0 0 2h1v8.999c0 1.104.897 2 2 2h7a2 2 0 0 0 2-2V5h1a1 1 0 1 0 0-2zM3 3h1-3 2zm3-1h3v1H6V2zm5 12H4V5h7v9zM5 7h1v4.999H5V7zm2 0h1v4.999H7V7zm2 0h1v4.999H9V7z"/></symbol>
</svg>

